<?xml version="1.0" encoding="UTF-8"?>
<svg version="1.1" xmlns="http://www.w3.org/2000/svg" width="491" height="150">
<path d="M0 0 C1.640625 1.10546875 1.640625 1.10546875 4.078125 3.10546875 C6.57174071 1.90165427 8.75955583 0.65118153 11.078125 -0.89453125 C16.42517294 -1.32574479 19.74274329 -1.36283662 24.078125 2.10546875 C27.99193642 6.29883813 28.20390399 10.82668082 28.2109375 16.37109375 C28.21287109 17.82902344 28.21287109 17.82902344 28.21484375 19.31640625 C28.21097656 20.31929687 28.20710938 21.3221875 28.203125 22.35546875 C28.20892578 23.88300781 28.20892578 23.88300781 28.21484375 25.44140625 C28.21355469 26.40820312 28.21226562 27.375 28.2109375 28.37109375 C28.20980957 29.25571289 28.20868164 30.14033203 28.20751953 31.05175781 C28.078125 33.10546875 28.078125 33.10546875 27.078125 34.10546875 C25.05848301 34.17790928 23.03645376 34.18924063 21.015625 34.16796875 C19.35853516 34.15443359 19.35853516 34.15443359 17.66796875 34.140625 C16.81332031 34.12902344 15.95867187 34.11742187 15.078125 34.10546875 C15.048396 33.12151123 15.048396 33.12151123 15.01806641 32.11767578 C14.92299993 29.15485806 14.81324748 26.19276343 14.703125 23.23046875 C14.6721875 22.19792969 14.64125 21.16539063 14.609375 20.1015625 C14.55136719 18.62236328 14.55136719 18.62236328 14.4921875 17.11328125 C14.4607666 16.2020752 14.4293457 15.29086914 14.39697266 14.35205078 C14.27929989 11.90615689 14.27929989 11.90615689 12.078125 10.10546875 C10.428125 10.10546875 8.778125 10.10546875 7.078125 10.10546875 C6.748125 18.02546875 6.418125 25.94546875 6.078125 34.10546875 C2.118125 34.10546875 -1.841875 34.10546875 -5.921875 34.10546875 C-5.97085938 32.708125 -6.01984375 31.31078125 -6.0703125 29.87109375 C-6.14535582 28.03253253 -6.22090297 26.19399183 -6.296875 24.35546875 C-6.3278125 23.43507813 -6.35875 22.5146875 -6.390625 21.56640625 C-6.42929688 20.67695312 -6.46796875 19.7875 -6.5078125 18.87109375 C-6.55494385 17.64567871 -6.55494385 17.64567871 -6.60302734 16.39550781 C-6.94531193 13.93713917 -7.6958027 12.24786876 -8.921875 10.10546875 C-10.901875 10.10546875 -12.881875 10.10546875 -14.921875 10.10546875 C-15.251875 18.02546875 -15.581875 25.94546875 -15.921875 34.10546875 C-19.881875 34.10546875 -23.841875 34.10546875 -27.921875 34.10546875 C-27.921875 22.88546875 -27.921875 11.66546875 -27.921875 0.10546875 C-23.301875 0.10546875 -18.681875 0.10546875 -13.921875 0.10546875 C-9.43712826 -1.38944683 -4.4097254 -2.05249414 0 0 Z " fill="#6A846A" transform="translate(187.921875,60.89453125)"/>
<path d="M0 0 C4.29 0 8.58 0 13 0 C13 11.22 13 22.44 13 34 C1 34 1 34 -1 33 C-1.70125 33.309375 -2.4025 33.61875 -3.125 33.9375 C-7.67600721 35.61939397 -11.6457695 35.91861989 -16.15234375 34.16015625 C-20.57105478 31.71628814 -23.40282561 28.9826342 -25.37109375 24.3046875 C-26.81041705 19.0301487 -27.10134558 13.80725958 -25.08203125 8.66015625 C-19.23445787 -1.50213146 -10.79234251 -2.69808563 0 0 Z M-11.375 11.5625 C-13.32935324 14.00577813 -13.32935324 14.00577813 -13 17.5625 C-12.26918644 20.9762548 -12.26918644 20.9762548 -10.25 23 C-7.33305134 24.29642163 -5.98207327 24.07048784 -3 23 C-1.08333333 21.91666667 -1.08333333 21.91666667 0 20 C0.54624158 16.33237794 0.47898298 14.6741242 -1.6875 11.625 C-3.88575314 9.84807743 -3.88575314 9.84807743 -6.5 9.5 C-9.10963005 9.85938071 -9.10963005 9.85938071 -11.375 11.5625 Z " fill="#BDCABA" transform="translate(408,61)"/>
<path d="M0 0 C0.95648438 -0.00257812 1.91296875 -0.00515625 2.8984375 -0.0078125 C5.625 0.125 5.625 0.125 9.625 1.125 C13.585 1.125 17.545 1.125 21.625 1.125 C21.625 12.345 21.625 23.565 21.625 35.125 C16.29166667 35.125 10.95833333 35.125 5.625 35.125 C4.14 35.62 4.14 35.62 2.625 36.125 C-2.82103641 36.76571017 -6.17211204 35.78666775 -10.57421875 32.7265625 C-14.48008168 29.25280155 -16.07865101 25.52304237 -16.71484375 20.375 C-16.89964864 14.9343441 -16.62506695 10.67509373 -13.375 6.125 C-9.05271066 1.8949195 -6.05468342 -0.0162324 0 0 Z M-2.25 12.375 C-3.59690543 14.47018622 -4.23157513 15.61506482 -4.375 18.125 C-3.45018289 21.39134817 -3.45018289 21.39134817 -1.375 24.125 C1.46475058 25.54274107 1.46475058 25.54274107 4.625 25.125 C7.72850449 23.27158666 7.72850449 23.27158666 9.625 20.125 C9.55685849 16.10465076 9.5073175 14.0073175 6.625 11.125 C1.94290006 10.61685144 1.94290006 10.61685144 -2.25 12.375 Z " fill="#4E6F51" transform="translate(100.375,59.875)"/>
<path d="M0 0 C2.89836261 2.61926103 4.75310649 5.25931947 6 9 C6.12226159 11.65847869 6.18512018 14.27923638 6.1875 16.9375 C6.19974609 17.65357422 6.21199219 18.36964844 6.22460938 19.10742188 C6.24359307 25.93522254 6.24359307 25.93522254 4 29 C-2.3030963 33.16242208 -7.37150126 34.51718636 -15 34 C-21.47376765 32.63247931 -25.38562876 29.50284895 -29 24 C-30.87894454 18.36316637 -30.74720942 12.24162826 -28.875 6.625 C-21.84758195 -3.21338528 -10.57058658 -5.98335089 0 0 Z M-15 7 C-15.33 7.99 -15.66 8.98 -16 10 C-12.7 10 -9.4 10 -6 10 C-6.33 9.01 -6.66 8.02 -7 7 C-9.64 7 -12.28 7 -15 7 Z M-17 19 C-16.96877057 20.96756452 -16.96877057 20.96756452 -16 23 C-13.22556523 24.59152808 -13.22556523 24.59152808 -10 25 C-7.55754253 23.96057155 -7.55754253 23.96057155 -6 22 C-6 21.01 -6 20.02 -6 19 C-7.45736087 18.80508548 -8.91594593 18.61930642 -10.375 18.4375 C-11.59316406 18.28087891 -11.59316406 18.28087891 -12.8359375 18.12109375 C-15.04899186 17.81762672 -15.04899186 17.81762672 -17 19 Z " fill="#7B937A" transform="translate(250,62)"/>
<path d="M0 0 C0.88042969 0.00644531 1.76085937 0.01289062 2.66796875 0.01953125 C4.8125 0.1875 4.8125 0.1875 5.8125 1.1875 C5.88476502 3.04037502 5.8963122 4.89583878 5.875 6.75 C5.86597656 7.76191406 5.85695313 8.77382813 5.84765625 9.81640625 C5.83605469 10.59886719 5.82445313 11.38132812 5.8125 12.1875 C3.5025 12.1875 1.1925 12.1875 -1.1875 12.1875 C-1.5175 14.8275 -1.8475 17.4675 -2.1875 20.1875 C1.2775 19.6925 1.2775 19.6925 4.8125 19.1875 C4.8125 22.8175 4.8125 26.4475 4.8125 30.1875 C2.5025 30.1875 0.1925 30.1875 -2.1875 30.1875 C-2.1875 38.1075 -2.1875 46.0275 -2.1875 54.1875 C-6.4775 54.1875 -10.7675 54.1875 -15.1875 54.1875 C-15.1875 46.2675 -15.1875 38.3475 -15.1875 30.1875 C-16.5075 30.1875 -17.8275 30.1875 -19.1875 30.1875 C-19.1875 26.8875 -19.1875 23.5875 -19.1875 20.1875 C-18.1975 19.8575 -17.2075 19.5275 -16.1875 19.1875 C-15.30008168 16.5590992 -15.30008168 16.5590992 -14.75 13.4375 C-13.6854182 8.76886525 -12.83693353 5.50516685 -9.1875 2.1875 C-6.03769212 0.25807223 -3.67083242 -0.05964425 0 0 Z " fill="#3C5F41" transform="translate(76.1875,40.8125)"/>
<path d="M0 0 C4 4.21052632 4 4.21052632 4 9 C-6.26623757 9.63721475 -6.26623757 9.63721475 -9.375 6.9375 C-9.91125 6.298125 -10.4475 5.65875 -11 5 C-13.65127469 4.83022506 -13.65127469 4.83022506 -16 6 C-17.94509421 8.97985813 -18.22094333 11.0640941 -17.8125 14.5625 C-17.73644531 15.32691406 -17.66039062 16.09132813 -17.58203125 16.87890625 C-16.89020356 19.40013066 -16.07533932 20.43342105 -14 22 C-11.40882687 21.99843776 -11.40882687 21.99843776 -9 21 C-8.34 20.01 -7.68 19.02 -7 18 C-4.1796875 17.70703125 -4.1796875 17.70703125 -0.875 17.8125 C0.22070312 17.83957031 1.31640625 17.86664063 2.4453125 17.89453125 C3.70988281 17.94673828 3.70988281 17.94673828 5 18 C4.61124961 23.44250545 2.83447004 26.16552996 -1 30 C-6.96890336 32.96930218 -14.04971647 33.18061785 -20.41796875 31.27734375 C-25.78045262 28.79229025 -28.87321201 25.59161239 -31.25 20.125 C-32.93867954 13.08883525 -31.86664756 8.50406083 -28.48828125 2.2421875 C-25.80343055 -1.80270568 -22.76524927 -3.4900391 -18.1875 -4.8125 C-11.0349971 -5.23323546 -5.68497548 -4.75951435 0 0 Z " fill="#AEBCAC" transform="translate(374,64)"/>
<path d="M0 0 C4.29 0 8.58 0 13 0 C13.33 4.29 13.66 8.58 14 13 C14.99 12.01 15.98 11.02 17 10 C20.92005446 9.50108398 23.11594538 9.44746586 26.5 11.5625 C28 14 28 14 28.0625 17.5625 C27 21 27 21 24.75 23 C21.5613946 24.15949287 20.16439447 24.16582954 17 23 C15.97117228 22.02968381 14.96593795 21.03293943 14 20 C13.97303635 21.79158489 13.95362083 23.58328473 13.9375 25.375 C13.92589844 26.37273437 13.91429687 27.37046875 13.90234375 28.3984375 C13.81993398 30.98432453 13.81993398 30.98432453 15 33 C16.485 33.495 16.485 33.495 18 34 C19.05404945 37.98196457 18.84098656 40.98195309 18 45 C11.68241733 44.75029318 6.90047802 44.41043022 2 40 C-0.17467271 35.86516312 -0.21137498 32.3085615 -0.125 27.6875 C-0.10695313 26.43324219 -0.08890625 25.17898437 -0.0703125 23.88671875 C-0.04710937 22.93410156 -0.02390625 21.98148438 0 21 C-1.32 20.67 -2.64 20.34 -4 20 C-4 16.7 -4 13.4 -4 10 C-2.68 9.67 -1.36 9.34 0 9 C0 6.03 0 3.06 0 0 Z " fill="#8BA088" transform="translate(263,51)"/>
<path d="M0 0 C1.16015625 -0.03867187 1.16015625 -0.03867187 2.34375 -0.078125 C4.98830838 0.3243078 5.83240802 1.21895849 7.5 3.25 C8.49 2.59 9.48 1.93 10.5 1.25 C16.65577889 0.59045226 16.65577889 0.59045226 19.5 2.8125 C20.96121461 6.37421061 20.56532181 8.58795629 19.5 12.25 C17.3125 14.3125 17.3125 14.3125 14.5 15.25 C11.56255722 14.55883699 9.18580071 13.59290035 6.5 12.25 C6.17 19.84 5.84 27.43 5.5 35.25 C1.21 35.25 -3.08 35.25 -7.5 35.25 C-7.5 24.03 -7.5 12.81 -7.5 1.25 C-4.73952457 0.32984152 -2.86637731 0.05732755 0 0 Z " fill="#97AA95" transform="translate(301.5,59.75)"/>
<path d="M0 0 C5.28 0 10.56 0 16 0 C16 11.22 16 22.44 16 34 C4 34 4 34 2 33 C0.515 33.495 0.515 33.495 -1 34 C-2.55630613 30.30377294 -3 27.98521103 -3 24 C-2.175 23.401875 -1.35 22.80375 -0.5 22.1875 C2.29045871 20.21232645 2.29045871 20.21232645 2.5 17 C2.24367632 14.01386223 2.24367632 14.01386223 0.5625 12.125 C-1.84591979 8.84954909 -1.80453593 6.03959075 -2 2 C-1.34 1.34 -0.68 0.68 0 0 Z " fill="#C5D2C2" transform="translate(405,61)"/>
<path d="M0 0 C0.95648438 -0.00257812 1.91296875 -0.00515625 2.8984375 -0.0078125 C5.625 0.125 5.625 0.125 7.5859375 0.62890625 C10.37565418 1.30763042 13.00925027 1.21864945 15.875 1.1875 C16.95265625 1.17847656 18.0303125 1.16945312 19.140625 1.16015625 C20.37039062 1.14275391 20.37039062 1.14275391 21.625 1.125 C21.295 1.785 20.965 2.445 20.625 3.125 C18.7378125 3.0321875 18.7378125 3.0321875 16.8125 2.9375 C13.53230483 2.88707628 13.53230483 2.88707628 10.75 4.5 C10.37875 5.03625 10.0075 5.5725 9.625 6.125 C7.48937246 8.26062754 6.55953261 8.75818342 3.625 9.125 C2.965 8.465 2.305 7.805 1.625 7.125 C1.295 7.785 0.965 8.445 0.625 9.125 C1.285 9.785 1.945 10.445 2.625 11.125 C1.4184375 11.74375 1.4184375 11.74375 0.1875 12.375 C-2.43223545 13.85946502 -2.43223545 13.85946502 -3.3125 16 C-3.39515261 18.81018889 -2.62489018 20.62521965 -1.375 23.125 C-0.715 23.785 -0.055 24.445 0.625 25.125 C-1.85 28.59 -1.85 28.59 -4.375 32.125 C-3.055 32.125 -1.735 32.125 -0.375 32.125 C-0.045 33.115 0.285 34.105 0.625 35.125 C1.285 35.455 1.945 35.785 2.625 36.125 C-2.79644783 36.68973415 -6.07404056 35.85484171 -10.57421875 32.7265625 C-14.48008168 29.25280155 -16.07865101 25.52304237 -16.71484375 20.375 C-16.89964864 14.9343441 -16.62506695 10.67509373 -13.375 6.125 C-9.05271066 1.8949195 -6.05468342 -0.0162324 0 0 Z " fill="#466749" transform="translate(100.375,59.875)"/>
<path d="M0 0 C-1.98 0.99 -1.98 0.99 -4 2 C-4 4.83967231 -3.59732819 7.23735711 -3 10 C-4.98 10.33 -6.96 10.66 -9 11 C-9.33 18.92 -9.66 26.84 -10 35 C-13.96 35 -17.92 35 -22 35 C-22 23.78 -22 12.56 -22 1 C-17.38 1 -12.76 1 -8 1 C-5.07175348 0.02391783 -3.04386724 -0.08226668 0 0 Z " fill="#627E63" transform="translate(182,60)"/>
<path d="M0 0 C1.50046875 0.00386719 1.50046875 0.00386719 3.03125 0.0078125 C4.0315625 0.00523438 5.031875 0.00265625 6.0625 0 C8.53125 0.1328125 8.53125 0.1328125 9.53125 1.1328125 C9.61972743 3.65375326 9.64652301 6.14712143 9.62890625 8.66796875 C9.6274913 9.42121933 9.62607635 10.17446991 9.62461853 10.95054626 C9.61900376 13.3655081 9.60644883 15.78037851 9.59375 18.1953125 C9.5887369 19.82877471 9.58417366 21.46223836 9.58007812 23.09570312 C9.56902954 27.10810835 9.55175506 31.12044491 9.53125 35.1328125 C7.55215602 35.15967803 5.57296029 35.17914625 3.59375 35.1953125 C2.49160156 35.20691406 1.38945312 35.21851563 0.25390625 35.23046875 C-2.46875 35.1328125 -2.46875 35.1328125 -3.46875 34.1328125 C-3.56957764 31.69620804 -3.60847603 29.28856549 -3.6015625 26.8515625 C-3.60251923 26.12287964 -3.60347595 25.39419678 -3.60446167 24.64343262 C-3.60514335 23.1000154 -3.60328988 21.55659533 -3.59912109 20.01318359 C-3.59377262 17.6428385 -3.59906642 15.27268291 -3.60546875 12.90234375 C-3.60480797 11.40624958 -3.6035268 9.91015553 -3.6015625 8.4140625 C-3.60358673 7.70052612 -3.60561096 6.98698975 -3.60769653 6.25183105 C-3.578642 0.19252188 -3.578642 0.19252188 0 0 Z " fill="#587759" transform="translate(131.46875,59.8671875)"/>
<path d="M0 0 C1.64574566 -0.02688151 3.29161413 -0.04634123 4.9375 -0.0625 C5.85402344 -0.07410156 6.77054687 -0.08570313 7.71484375 -0.09765625 C10 0 10 0 11 1 C11.2718793 3.88192058 11.47645231 6.73595575 11.625 9.625 C11.67003662 10.47425049 11.71507324 11.32350098 11.76147461 12.19848633 C12.10669514 19.87156896 11.74245736 27.35840036 11 35 C7.04 35 3.08 35 -1 35 C-3.26721176 30.46557648 -2.1850245 24.16573788 -2.1875 19.1875 C-2.19974609 17.90294922 -2.21199219 16.61839844 -2.22460938 15.29492188 C-2.22654297 14.05677734 -2.22847656 12.81863281 -2.23046875 11.54296875 C-2.23457764 10.40883545 -2.23868652 9.27470215 -2.24291992 8.10620117 C-2.00008452 5.00108069 -1.32031761 2.8012188 0 0 Z " fill="#A6B6A4" transform="translate(327,60)"/>
<path d="M0 0 C3.95063669 -0.5883927 6.60929907 -0.08658519 10 2 C10 2.66 10 3.32 10 4 C10.804375 4.226875 11.60875 4.45375 12.4375 4.6875 C13.283125 5.120625 14.12875 5.55375 15 6 C15.99087321 9.42463596 16.12831028 12.7165923 16.1328125 16.265625 C16.13474609 17.72355469 16.13474609 17.72355469 16.13671875 19.2109375 C16.13285156 20.21382812 16.12898438 21.21671875 16.125 22.25 C16.13080078 23.77753906 16.13080078 23.77753906 16.13671875 25.3359375 C16.13542969 26.30273438 16.13414062 27.26953125 16.1328125 28.265625 C16.13168457 29.15024414 16.13055664 30.03486328 16.12939453 30.94628906 C16 33 16 33 15 34 C12.98035801 34.07244053 10.95832876 34.08377188 8.9375 34.0625 C7.28041016 34.04896484 7.28041016 34.04896484 5.58984375 34.03515625 C4.73519531 34.02355469 3.88054687 34.01195312 3 34 C2.97494385 33.34926514 2.9498877 32.69853027 2.92407227 32.02807617 C2.80806298 29.08101954 2.68535885 26.1342787 2.5625 23.1875 C2.52318359 22.16333984 2.48386719 21.13917969 2.44335938 20.08398438 C2.38051758 18.60961914 2.38051758 18.60961914 2.31640625 17.10546875 C2.27974854 16.19949951 2.24309082 15.29353027 2.20532227 14.36010742 C2.0791795 11.84951218 2.0791795 11.84951218 1 9 C-2 7.66666667 -2 7.66666667 -5 9 C-5.66 8.34 -6.32 7.68 -7 7 C-6.401875 6.773125 -5.80375 6.54625 -5.1875 6.3125 C-2.77377956 5.12252979 -2.77377956 5.12252979 -1.625 2.375 C-1.08875 1.59125 -0.5525 0.8075 0 0 Z " fill="#718B71" transform="translate(200,61)"/>
<path d="M0 0 C4.3281663 2.28657842 7.32666326 4.88717424 10 9 C10 10.32 10 11.64 10 13 C-0.22224519 13.63448418 -0.22224519 13.63448418 -3.375 11.0625 C-3.91125 10.381875 -4.4475 9.70125 -5 9 C-5.845625 8.855625 -6.69125 8.71125 -7.5625 8.5625 C-10 8 -10 8 -11.8125 5.5625 C-13 3 -13 3 -13 1 C-8.51629977 -1.61718249 -4.93486421 -1.18436741 0 0 Z " fill="#B3C0B0" transform="translate(368,60)"/>
<path d="M0 0 C1.875 -0.328125 1.875 -0.328125 4 -0.25 C4.70125 -0.23453125 5.4025 -0.2190625 6.125 -0.203125 C8 0 8 0 10 1 C9.9375 4.25 9.9375 4.25 9 8 C3.41812548 12.73245883 -1.92244947 12.4607447 -9 12 C-9.66 10.68 -10.32 9.36 -11 8 C-10.01 8 -9.02 8 -8 8 C-7.67 7.01 -7.34 6.02 -7 5 C-5.33927151 4.31867549 -3.672233 3.65257873 -2 3 C-1.34 2.01 -0.68 1.02 0 0 Z " fill="#80997E" transform="translate(245,83)"/>
<path d="M0 0 C2 1.5625 2 1.5625 3 4 C3 7.5625 3 7.5625 2 11 C-0.1875 13.0625 -0.1875 13.0625 -3 14 C-6.125 13.25 -6.125 13.25 -9 12 C-9.99 11.67 -10.98 11.34 -12 11 C-12 8.03 -12 5.06 -12 2 C-7.88733277 0.00597952 -4.55448494 -0.50605388 0 0 Z " fill="#C6D0C3" transform="translate(319,61)"/>
<path d="M0 0 C2.5 1.5625 2.5 1.5625 4 4 C4.0625 7.5625 4.0625 7.5625 3 11 C0.38918928 13.32072064 -1.07227035 14 -4.5625 14 C-7.88419806 12.63725208 -9.1835062 11.07406644 -11 8 C-10.93182826 5.13678706 -10.37360729 3.60192285 -8.875 1.1875 C-5.84814901 -0.72950563 -3.4846244 -0.42793633 0 0 Z " fill="#C3CEC1" transform="translate(287,61)"/>
<path d="M0 0 C3 0.5625 3 0.5625 5.4375 2.6875 C7 5.5625 7 5.5625 6.875 8.6875 C6 11.5625 6 11.5625 4 14.5625 C1.6875 15.4375 1.6875 15.4375 -1 15.5625 C-5.59701493 13.36847015 -5.59701493 13.36847015 -7 10.5625 C-7.38932198 6.9807378 -7.43596718 5.19968279 -5.375 2.1875 C-3 0.5625 -3 0.5625 0 0 Z " fill="#C5D3C2" transform="translate(332,40.4375)"/>
<path d="M0 0 C1.9375 1.0625 1.9375 1.0625 3 3 C3.5 6.4375 3.5 6.4375 3 10 C0.875 12.5 0.875 12.5 -2 14 C-5.50732933 14 -7.2434698 13.6345092 -9.9375 11.375 C-11.48100034 7.92482276 -10.93333407 5.60000284 -10 2 C-6.30513897 -0.46324069 -4.36706908 -0.38991688 0 0 Z " fill="#BFCABC" transform="translate(153,61)"/>
<path d="M0 0 C1.37478516 0.01740234 1.37478516 0.01740234 2.77734375 0.03515625 C3.69644531 0.04417969 4.61554688 0.05320313 5.5625 0.0625 C6.27277344 0.07410156 6.98304688 0.08570313 7.71484375 0.09765625 C4.95261097 2.85988903 2.50777758 2.67621916 -1.28515625 3.09765625 C-1.34321558 7.34759888 -1.37877279 11.59743949 -1.41015625 15.84765625 C-1.43529297 17.6575 -1.43529297 17.6575 -1.4609375 19.50390625 C-1.46738281 20.6640625 -1.47382813 21.82421875 -1.48046875 23.01953125 C-1.49094238 24.0878418 -1.50141602 25.15615234 -1.51220703 26.25683594 C-1.28677144 29.0774473 -0.74364619 30.70553088 0.71484375 33.09765625 C2.13796875 33.06671875 2.13796875 33.06671875 3.58984375 33.03515625 C6.71484375 33.09765625 6.71484375 33.09765625 8.71484375 34.09765625 C8.71484375 27.82765625 8.71484375 21.55765625 8.71484375 15.09765625 C9.04484375 15.09765625 9.37484375 15.09765625 9.71484375 15.09765625 C9.71484375 21.69765625 9.71484375 28.29765625 9.71484375 35.09765625 C0.4375 35.1953125 0.4375 35.1953125 -2.28515625 35.09765625 C-3.99008506 33.39272744 -3.41320045 31.25231364 -3.42410278 28.9786377 C-3.42207855 28.26510132 -3.42005432 27.55156494 -3.41796875 26.81640625 C-3.41892548 26.08772339 -3.4198822 25.35904053 -3.42086792 24.60827637 C-3.4215496 23.06485915 -3.41969613 21.52143908 -3.41552734 19.97802734 C-3.41017887 17.60768225 -3.41547267 15.23752666 -3.421875 12.8671875 C-3.42121422 11.37109333 -3.41993305 9.87499928 -3.41796875 8.37890625 C-3.41999298 7.66536987 -3.42201721 6.9518335 -3.42410278 6.2166748 C-3.39498936 0.14508502 -3.39498936 0.14508502 0 0 Z " fill="#4B634C" transform="translate(131.28515625,59.90234375)"/>
<path d="M0 0 C0.66 0 1.32 0 2 0 C2.33 8.91 2.66 17.82 3 27 C5.97 27.33 8.94 27.66 12 28 C12 28.33 12 28.66 12 29 C8.37 29 4.74 29 1 29 C-0.38308781 26.23382437 -0.11210196 23.98982 -0.09765625 20.8984375 C-0.09443359 19.68671875 -0.09121094 18.475 -0.08789062 17.2265625 C-0.07951172 15.95554687 -0.07113281 14.68453125 -0.0625 13.375 C-0.05798828 12.09625 -0.05347656 10.8175 -0.04882812 9.5 C-0.03701203 6.33328708 -0.02053815 3.16666644 0 0 Z " fill="#96A192" transform="translate(325,66)"/>
<path d="M0 0 C3.1875 0.375 3.1875 0.375 5.625 2.5625 C7.1875 5.375 7.1875 5.375 6.9375 8.1875 C6.69 8.909375 6.4425 9.63125 6.1875 10.375 C4.6875 9 4.6875 9 3.1875 7.375 C3.1875 6.715 3.1875 6.055 3.1875 5.375 C2.5275 5.045 1.8675 4.715 1.1875 4.375 C1.1875 5.365 1.1875 6.355 1.1875 7.375 C-0.4625 7.705 -2.1125 8.035 -3.8125 8.375 C-3.85491723 6.04205225 -3.85342937 3.70797433 -3.8125 1.375 C-2.8125 0.375 -2.8125 0.375 0 0 Z " fill="#839982" transform="translate(246.8125,61.625)"/>
<path d="M0 0 C4.95 0.33 9.9 0.66 15 1 C15 3.31 15 5.62 15 8 C14.67 7.01 14.34 6.02 14 5 C10.37 5 6.74 5 3 5 C3 4.01 3 3.02 3 2 C2.01 2 1.02 2 0 2 C0 1.34 0 0.68 0 0 Z " fill="#6E876D" transform="translate(241,79)"/>
<path d="M0 0 C0 3 0 3 -0.5 4.9375 C-1.15706668 7.29419326 -1.15706668 7.29419326 -1 11 C-0.34 11.33 0.32 11.66 1 12 C1.33 17.94 1.66 23.88 2 30 C-0.49118953 26.2632157 -0.2065226 24.25548181 -0.125 19.8125 C-0.10695313 18.54019531 -0.08890625 17.26789063 -0.0703125 15.95703125 C-0.04710937 14.98121094 -0.02390625 14.00539063 0 13 C-1.32 12.67 -2.64 12.34 -4 12 C-4 8.7 -4 5.4 -4 2 C-2.68 1.34 -1.36 0.68 0 0 Z " fill="#818F7F" transform="translate(263,59)"/>
<path d="M0 0 C0.66 0.33 1.32 0.66 2 1 C1.67 1.66 1.34 2.32 1 3 C0.01 2.67 -0.98 2.34 -2 2 C-1.34 2 -0.68 2 0 2 C0 1.34 0 0.68 0 0 Z M-4 3 C-2 4 -2 4 -1.3125 5.9375 C-1 8 -1 8 -2 10 C-2.99 10 -3.98 10 -5 10 C-5.33 10.99 -5.66 11.98 -6 13 C-6.66 12.67 -7.32 12.34 -8 12 C-8.25 9.75 -8.25 9.75 -8 7 C-6 4.6875 -6 4.6875 -4 3 Z " fill="#729B71" transform="translate(240,59)"/>
<path d="M0 0 C1.0725 0.37125 2.145 0.7425 3.25 1.125 C6.81629347 2.31491732 6.81629347 2.31491732 9.4375 1.125 C9.953125 0.75375 10.46875 0.3825 11 0 C10.67 0.99 10.34 1.98 10 3 C8.34795544 3.70211894 6.68076231 4.36971413 5 5 C4.67 5.66 4.34 6.32 4 7 C1.9375 7.625 1.9375 7.625 0 8 C0 7.34 0 6.68 0 6 C-0.99 5.67 -1.98 5.34 -3 5 C-2.505 4.54625 -2.01 4.0925 -1.5 3.625 C0.22609337 2.12364481 0.22609337 2.12364481 0 0 Z " fill="#728F71" transform="translate(233,84)"/>
<path d="M0 0 C1.98 0.495 1.98 0.495 4 1 C4 3.97 4 6.94 4 10 C2.35 9.67 0.7 9.34 -1 9 C-0.01 8.67 0.98 8.34 2 8 C1.67 7.4225 1.34 6.845 1 6.25 C0 4 0 4 0 0 Z " fill="#92A48F" transform="translate(276,85)"/>
<path d="M0 0 C0.66 0.33 1.32 0.66 2 1 C0.73882275 4.88862987 -0.45264167 6.89375599 -4 9 C-4.66 9 -5.32 9 -6 9 C-4.68775452 5.06326356 -3.08089673 2.77280706 0 0 Z " fill="#435D44" transform="translate(91,62)"/>
<path d="M0 0 C2 3 2 3 1.75 5.5625 C1 8 1 8 -1 10 C-1.165 10.680625 -1.33 11.36125 -1.5 12.0625 C-1.7475 13.0215625 -1.7475 13.0215625 -2 14 C-2.99 14.495 -2.99 14.495 -4 15 C-4 12.36 -4 9.72 -4 7 C-3.01 6.67 -2.02 6.34 -1 6 C-0.67 4.02 -0.34 2.04 0 0 Z " fill="#334C38" transform="translate(61,54)"/>
<path d="M0 0 C0.90492188 0.23396484 0.90492188 0.23396484 1.828125 0.47265625 C3.02695312 0.76462891 3.02695312 0.76462891 4.25 1.0625 C5.43335938 1.35833984 5.43335938 1.35833984 6.640625 1.66015625 C9.10394822 2.01497267 10.65604132 1.76877544 13 1 C13 1.99 13 2.98 13 4 C8.71 4 4.42 4 0 4 C0 2.68 0 1.36 0 0 Z " fill="#909F8E" transform="translate(294,91)"/>
<path d="M0 0 C0 3.6959107 -0.83487616 6.50462849 -2 10 C-2.66 10 -3.32 10 -4 10 C-4 7.36 -4 4.72 -4 2 C-2.68 1.34 -1.36 0.68 0 0 Z " fill="#769275" transform="translate(263,59)"/>
<path d="M0 0 C1.98 0.495 1.98 0.495 4 1 C4 1.66 4 2.32 4 3 C6.97 3 9.94 3 13 3 C13 3.33 13 3.66 13 4 C11.41676312 4.027193 9.83338938 4.04648306 8.25 4.0625 C6.92742187 4.07990234 6.92742187 4.07990234 5.578125 4.09765625 C3.2181162 4.00826198 1.25501476 3.66912821 -1 3 C-0.67 2.01 -0.34 1.02 0 0 Z " fill="#495F4A" transform="translate(107,91)"/>
<path d="M0 0 C2.97 0.495 2.97 0.495 6 1 C6 1.99 6 2.98 6 4 C4.02 4 2.04 4 0 4 C0 2.68 0 1.36 0 0 Z " fill="#466049" transform="translate(75,67)"/>
<path d="M0 0 C2.9375 0.75 2.9375 0.75 6 2 C6.875 4.125 6.875 4.125 7 6 C3.535 4.02 3.535 4.02 0 2 C0 1.34 0 0.68 0 0 Z " fill="#B7C0B5" transform="translate(386,89)"/>
<path d="" fill="#000000" transform="translate(0,0)"/>
</svg>
